<svg id="图层_1" data-name="图层 1" xmlns="http://www.w3.org/2000/svg" viewBox="0 0 713.11 411.11"><defs><style>.cls-1{fill:none;stroke:#000;stroke-linecap:round;stroke-linejoin:round;stroke-width:0.71px;}</style></defs><title>亚克力切割</title><path class="cls-1" d="M445.6,300.48l-.2-1.4-.4-1.3-.7-1.3-1-1-1.1-.9-1.3-.5-1.4-.3h-1.4l-1.4.3-1.3.5-1.2.9-.9,1-.7,1.3-.5,1.3-.1,1.4.1,1.4.5,1.4.7,1.2.9,1.1,1.2.8,1.3.6,1.4.3h1.4l1.4-.3,1.3-.6,1.1-.8,1-1.1.7-1.2.4-1.4.2-1.4M467,456.38l.1-1.7.5-1.6.7-1.6.9-1.4,1.2-1.2,1.4-1,1.5-.8,1.6-.5,1.7-.2,1.7.1,1.7.3,1.6.7,1.4.9,1.3,1.1,1.1,1.3.8,1.5.6,1.6.3,1.7v1.7l-.3,1.7-.6,1.6-.8,1.5-1.1,1.3-1.3,1.1-1.4.9-1.6.7-1.7.3-1.7.1-1.7-.2-1.6-.5-1.5-.8-1.4-1-1.2-1.2-.9-1.5-.7-1.5-.5-1.7-.1-1.7m-11.4-297.6.9.2.6.4.5.7.2.8-.2.8-.5.7-.6.5-.9.2m-13.8,0h13.8m-13.8,0-.9-.2-.6-.5-.5-.7-.2-.8.2-.8.5-.7.6-.4.9-.2m13.8,0H441.8m99.1-25.5H413.2m0,0-2.2.2-2.1.5-2.1.8-1.8,1.1-1.7,1.4-1.5,1.7-1.1,1.9-.9,2-.5,2.1m0,0-29.8,168.5m0,0v.6l-.1.3v.6l-.1.3v.6m0,0v51.7m0,0,.1.9.1,1,.1.9.2.9.3.9.3.8.4.9.4.8m0,0,59.5,103m0,0,1,1.5,1.3,1.4,1.3,1.3,1.6,1,1.7.8,1.7.6,1.8.4,1.9.1m0,0h68.1m0,0,1.9-.1,1.8-.4,1.7-.6,1.7-.8,1.5-1,1.4-1.3,1.3-1.4,1-1.5m0,0,59.5-103m0,0,.4-.8.4-.9.3-.8.3-.9.2-.9.1-.9.1-1,.1-.9m0,0v-51.7m0,0v-.3l-.1-.3v-.9l-.1-.3v-.3l-.1-.3M554.8,145l29.7,168.5M554.8,145l-.5-2.1-.9-2-1.2-1.9-1.4-1.7-1.7-1.4-1.9-1.1-2-.8-2.1-.5-2.2-.2m-85.3,42.5-.1-1.4-.4-1.3-.7-1.3-.9-1-1.1-.9-1.3-.6-1.3-.4h-1.5l-1.3.2-1.4.5-1.2.7-1,1-.8,1.1-.5,1.3-.3,1.4v1.4l.3,1.4.5,1.3.8,1.1,1,1,1.2.7,1.4.5,1.3.2h1.5l1.3-.4,1.3-.6,1.1-.9.9-1,.7-1.3.4-1.3.1-1.4m-70.4,167.3.2,1.4.4,1.3.7,1.3,1,1,1.1.8,1.3.6,1.4.3h1.4l1.4-.3,1.3-.6,1.2-.8.9-1,.7-1.3.5-1.3.1-1.4-.1-1.5-.5-1.3-.7-1.2-.9-1.1-1.2-.8-1.3-.6-1.4-.3h-1.4l-1.4.3-1.3.6-1.1.8-1,1.1-.7,1.2-.4,1.3-.2,1.5m183.7,0-.2-1.5-.4-1.3-.7-1.2-1-1.1-1.1-.8-1.3-.6-1.4-.3h-1.4l-1.4.3-1.3.6-1.2.8-.9,1.1-.7,1.2-.5,1.3-.1,1.5.1,1.4.5,1.3.7,1.3.9,1,1.2.8,1.3.6,1.4.3h1.4l1.4-.3,1.3-.6,1.1-.8,1-1,.7-1.3.4-1.3.2-1.4m-86.2-42.6-.1-2-.5-2-.7-1.9-.9-1.7-1.2-1.6-1.5-1.5-1.6-1.2-1.8-1-1.9-.7-1.9-.4-2.1-.1-2,.1-2,.4-1.8.7-1.8,1-1.6,1.2-1.5,1.5-1.2,1.6-1,1.7-.7,1.9-.4,2-.1,2,.1,2.1.4,1.9.7,1.9,1,1.8,1.2,1.6,1.5,1.4,1.6,1.3,1.8.9,1.8.7,2,.5,2,.1,2.1-.1,1.9-.5,1.9-.7,1.8-.9,1.6-1.3,1.5-1.4,1.2-1.6.9-1.8.7-1.9.5-1.9.1-2.1m43.8-124.7-.1-1.4-.5-1.3-.6-1.3-1-1-1.1-.9-1.2-.6-1.4-.4h-1.4l-1.4.2-1.3.5-1.2.7-1,1-.8,1.1-.6,1.3-.2,1.4v1.4l.2,1.4.6,1.3.8,1.1,1,1,1.2.7,1.3.5,1.4.2h1.4l1.4-.4,1.2-.6,1.1-.9,1-1,.6-1.3.5-1.3.1-1.4m-35,124.7.2,1.4.4,1.4.7,1.2,1,1.1,1.1.8,1.3.6,1.4.3H499l1.4-.3,1.3-.6,1.2-.8.9-1.1.7-1.2.5-1.4.1-1.4-.1-1.4-.5-1.3-.7-1.3-.9-1-1.2-.9-1.3-.5-1.4-.3h-1.4l-1.4.3-1.3.5-1.1.9-1,1-.7,1.3-.4,1.3-.2,1.4" transform="translate(-52.25 -74.02)"/><path class="cls-1" d="M713.1,297.48l-.1-.4-.1-.4-.2-.3-.3-.3-.3-.3-.4-.2h-1.2l-.4.2-.3.3-.3.3-.2.3-.1.4-.1.4.1.4.1.4.2.4.3.3.3.2.4.2.4.1h.4l.4-.1.4-.2.3-.2.3-.3.2-.4.1-.4.1-.4m0,27-.1-.5-.1-.3-.2-.4-.3-.3-.3-.3-.4-.1-.4-.1h-.4l-.4.1-.4.1-.3.3-.3.3-.2.4-.1.3-.1.5.1.4.1.4.2.3.3.3.3.3.4.1.4.1h.4l.4-.1.4-.1.3-.3.3-.3.2-.3.1-.4.1-.4M765,333v-90.7m0,0-.1-.8-.1-.7-.3-.7-.3-.7-.4-.6-.5-.6-.6-.4-.6-.5-.6-.3-.7-.2-.8-.2h-.7m0,0H705.4m0,0h-.7l-.7.2-.7.2-.7.3-.6.5-.6.4-.5.6-.4.6-.3.7-.2.7-.2.7v.8m0,0V333m0,0v.7l.2.7.2.7.3.7.4.6.5.6.6.5.6.4.7.3.7.2.7.2h.7m0,0h53.9m0,0h.7l.8-.2.7-.2.6-.3.6-.4.6-.5.5-.6.4-.6.3-.7.3-.7.1-.7.1-.7m-41.1-73.7v11.3m0-11.3v-.5l.1-.5.2-.5.3-.4.4-.3.4-.3.4-.2.5-.1.5-.1m1.7,0h-1.7m8.7,1.6-7-1.6m7,15.4.7-.2.8-.3.6-.4.7-.4.6-.6.5-.6.5-.6.4-.7.3-.7.2-.8.1-.8.1-.8-.1-.8-.1-.7-.2-.8-.3-.7-.4-.7-.5-.7-.5-.6-.6-.5-.7-.5-.6-.4-.8-.3-.7-.2m-7,15.4,7-1.6m-8.7,1.6h1.7m-1.7,0h-.5l-.5-.1-.4-.2-.4-.3-.4-.4-.3-.4-.2-.4-.1-.5v-.5" transform="translate(-52.25 -74.02)"/><path class="cls-1" d="M144.8,153.68l.1-1.1.5-1.1.7-.9,1-.6,1.1-.4,1.1-.1,1.1.2,1.1.6.8.7.6,1,.3,1.1v1.2l-.3,1.1-.6,1-.8.8-1.1.5-1.1.3-1.1-.1-1.1-.4-1-.7-.7-.9-.5-1-.1-1.2m28.3,82.5L173,235l-.5-1.1-.7-.8-1-.7-1.1-.4-1.1-.1-1.2.3-1,.5-.8.8-.6,1-.3,1.1v1.1l.3,1.2.6.9.8.8,1,.6,1.2.2,1.1-.1,1.1-.4,1-.6.7-.9.5-1.1.1-1.1M111,298.28l-.2-1.2-.4-1-.8-.9-.9-.7-1.1-.4h-1.2l-1.1.2-1,.5-.9.8-.6,1-.3,1.1v1.2l.3,1.1.6,1,.9.8,1,.5,1.1.2h1.2l1.1-.4.9-.7.8-.9.4-1.1.2-1.1m62.1,62.1-.1-1.1-.5-1.1-.7-.9-1-.6-1.1-.4-1.1-.1-1.2.2-1,.6-.8.7-.6,1-.3,1.2V361l.3,1.1.6,1,.8.8,1,.5,1.2.3,1.1-.1,1.1-.4,1-.7.7-.9.5-1,.1-1.2m51-206.7.2-1.1.5-1.1.7-.9.9-.6,1.1-.4,1.2-.1,1.1.2,1,.6.9.7.6,1,.3,1.1v1.2l-.3,1.1-.6,1-.9.8-1,.5-1.1.3-1.2-.1-1.1-.4-.9-.7-.7-.9-.5-1-.2-1.2m0,39.7.2-1.1.5-1.1.7-.9.9-.7,1.1-.4h1.2l1.1.2,1,.5.9.8.6,1,.3,1.1V194l-.3,1.1-.6,1-.9.8-1,.5-1.1.3-1.2-.1-1.1-.4-.9-.7-.7-.9-.5-1-.2-1.2m-73.8,260.8.2-1.8.4-1.7.8-1.7,1.1-1.4,1.3-1.3,1.5-1,1.7-.7,1.7-.4,1.8-.1,1.8.3,1.7.5,1.6.9,1.4,1.1,1.2,1.4.9,1.5.7,1.7.3,1.8v1.8l-.3,1.8-.7,1.7-.9,1.5-1.2,1.4-1.4,1.1-1.6.9-1.7.5-1.8.3-1.8-.1-1.7-.4-1.7-.7-1.5-1-1.3-1.3-1.1-1.4-.8-1.7-.4-1.7-.2-1.8m73.8-368.5.2-1.2.5-1,.7-.9.9-.7,1.1-.4h1.2l1.1.2,1,.5.9.8.6,1,.3,1.1v1.2l-.3,1.1-.6,1-.9.8-1,.5-1.1.2h-1.2l-1.1-.4-.9-.7-.7-.9-.5-1.1-.2-1.1m-42.3,87.9.1-1.5.5-1.4.8-1.3,1-1.1,1.3-.9,1.3-.5,1.5-.3,1.5.1,1.5.4,1.3.7,1.1,1,1,1.2.6,1.4.3,1.4v1.5l-.3,1.5-.6,1.4-1,1.1-1.1,1-1.3.7-1.5.4-1.5.1-1.5-.2-1.3-.6-1.3-.8-1-1.1-.8-1.3-.5-1.4-.1-1.5m70.4,167.2-.2,1.5-.4,1.4-.8,1.2-1,1.1-1.2.8-1.4.6-1.4.2-1.5-.1-1.4-.4-1.3-.7-1.1-.9-.9-1.2L239,343l-.4-1.5v-1.4l.4-1.5.6-1.3.9-1.2,1.1-.9,1.3-.7,1.4-.4,1.5-.1,1.4.3,1.4.5,1.2.8,1,1.1.8,1.3.4,1.4.2,1.4m-183.7,0,.2-1.4.4-1.4.8-1.3,1-1.1,1.2-.8,1.4-.5L75,334l1.4.1,1.4.4,1.3.7,1.2.9.9,1.2.6,1.3.3,1.5v1.4l-.3,1.5-.6,1.3-.9,1.2-1.2.9-1.3.7-1.4.4-1.4.1-1.5-.2-1.4-.6-1.2-.8-1-1.1-.8-1.2-.4-1.4-.2-1.5m68.5-42.5.1-3.2.5-3.1.8-3.1,1.1-3,1.4-2.9,1.6-2.7,1.9-2.5,2.2-2.3,2.4-2.1,2.6-1.9,2.7-1.6,2.9-1.3,3-1,3.1-.7,3.2-.4,3.2-.1,3.1.3,3.2.5,3,.9,3,1.1,2.8,1.5,2.7,1.7,2.5,2,2.2,2.2,2.1,2.4,1.8,2.7,1.5,2.8,1.2,2.9,1,3,.6,3.1.3,3.2v3.2l-.3,3.1-.6,3.2-1,3-1.2,2.9-1.5,2.8-1.8,2.6-2.1,2.5-2.2,2.2-2.5,2-2.7,1.7-2.8,1.5-3,1.1-3,.9-3.2.5-3.1.3-3.2-.1-3.2-.4-3.1-.7-3-1-2.9-1.3-2.7-1.6-2.6-1.9-2.4-2.1-2.2-2.3-1.9-2.5-1.6-2.8-1.4-2.8-1.1-3-.8-3.1-.5-3.1-.1-3.2m125.4-82.2h-5.7m0,0-2.4-.2-2.4-.5-2.2-.8-2.2-1.2-1.9-1.5-1.7-1.7-1.5-1.9-1.1-2.2-.9-2.2-.5-2.4-.2-2.4m0,0V80m0,0-.1-1.1-.3-1-.5-1-.7-.9-.9-.7-1-.5-1-.3-1.1-.1m0,0H192.8m0,0-1.9.1-1.8.3-1.8.6-1.6.9-1.6,1-1.4,1.2-1.2,1.4-1,1.5m0,0-23.7,41.1m0,0-1.3,1.9-1.4,1.7-1.7,1.4-1.9,1.3-2,1-2.1.7-2.1.4-2.3.1m-45.5,0H142m-45.5,0-2.2.2-2.1.5-2,.9-1.9,1.1-1.7,1.4-1.4,1.7-1.2,1.8-.9,2-.5,2.2m0,0L52.9,311.18m0,0-.1.4v.3l-.1.3v.9l-.1.3v.3m0,51.7v-51.7m0,51.7.1.9.1.9.1.9.2.9.3.9.3.9.4.8.4.8M114,475.48,54.5,372.38M114,475.48l1,1.5,1.3,1.4,1.4,1.2,1.5,1,1.7.9,1.7.6,1.8.3,1.9.1m68.1,0H126.3m68.1,0,1.9-.1,1.8-.3,1.8-.6,1.6-.9,1.6-1,1.4-1.2,1.2-1.4,1-1.5m59.5-103.1-59.5,103.1m59.5-103.1.4-.8.4-.8.3-.9.3-.9.2-.9.2-.9v-.9l.1-.9m0-143.6v143.6m0-143.6-.1-1.1-.4-1.1-.5-1-.7-.9-.8-.7-1-.5-1.1-.3-1.1-.1m-80.6-59.5h13.9m0,0,.8.1.7.5.4.7.2.8-.2.8-.4.7-.7.5-.8.1m0,0H181.8m0,0-.9-.1-.6-.5-.5-.7-.2-.8.2-.8.5-.7.6-.5.9-.1m-70.9,17,.2-1.5.4-1.4.8-1.3,1-1.1,1.3-.9,1.4-.5,1.5-.3,1.5.1,1.4.4,1.3.7,1.2,1,.9,1.2.6,1.4.3,1.4v1.5l-.3,1.5-.6,1.4-.9,1.1-1.2,1-1.3.7-1.4.4-1.5.1-1.5-.2-1.4-.6-1.3-.8-1-1.1-.8-1.3-.4-1.4-.2-1.5m124.4,124.7-.2-1.2-.5-1-.7-.9-.9-.7-1.1-.4h-1.2l-1.1.2-1.1.5-.8.8-.6,1-.3,1.1v1.2l.3,1.1.6,1,.8.8,1.1.5,1.1.2h1.2l1.1-.4.9-.7.7-.9.5-1.1.2-1.1" transform="translate(-52.25 -74.02)"/></svg>