<svg id="_0" data-name="0" xmlns="http://www.w3.org/2000/svg" viewBox="0 0 156.61 156.61"><defs><style>.cls-1{fill:none;stroke:#000;stroke-linecap:round;stroke-linejoin:round;stroke-width:0.71px;}</style></defs><title>地脚板</title><g id="ARC"><path class="cls-1" d="M270.16,39.31a2.13,2.13,0,0,0,0,4.25" transform="translate(-149.19 -13.44)"/></g><g id="ARC-2" data-name="ARC"><path class="cls-1" d="M284.05,43.56a2.13,2.13,0,1,0,0-4.25" transform="translate(-149.19 -13.44)"/></g><g id="ARC-3" data-name="ARC"><path class="cls-1" d="M163.72,13.8A14.16,14.16,0,0,0,149.55,28" transform="translate(-149.19 -13.44)"/></g><g id="ARC-4" data-name="ARC"><path class="cls-1" d="M305.45,28A14.16,14.16,0,0,0,291.28,13.8" transform="translate(-149.19 -13.44)"/></g><g id="ARC-5" data-name="ARC"><path class="cls-1" d="M230.44,165.55a14.14,14.14,0,0,0,10,4.15" transform="translate(-149.19 -13.44)"/></g><g id="ARC-6" data-name="ARC"><path class="cls-1" d="M149.55,78.79a14.18,14.18,0,0,0,4.15,10" transform="translate(-149.19 -13.44)"/></g><g id="ARC-7" data-name="ARC"><path class="cls-1" d="M291.28,169.7a14.16,14.16,0,0,0,14.17-14.17" transform="translate(-149.19 -13.44)"/></g><g id="CIRCLE"><path class="cls-1" d="M171,56.32a6.95,6.95,0,1,1,6.94,6.94A6.95,6.95,0,0,1,171,56.32Z" transform="translate(-149.19 -13.44)"/></g><g id="CIRCLE-2" data-name="CIRCLE"><path class="cls-1" d="M270.16,56.32a6.95,6.95,0,1,1,6.95,6.94,6.95,6.95,0,0,1-6.95-6.94Z" transform="translate(-149.19 -13.44)"/></g><g id="LINE"><line class="cls-1" x1="0.35" y1="14.53" x2="0.35" y2="65.35"/></g><g id="LINE-2" data-name="LINE"><line class="cls-1" x1="120.97" y1="30.12" x2="134.86" y2="30.12"/></g><g id="LINE-3" data-name="LINE"><line class="cls-1" x1="4.51" y1="75.37" x2="81.24" y2="152.11"/></g><g id="LINE-4" data-name="LINE"><line class="cls-1" x1="142.09" y1="156.26" x2="91.26" y2="156.26"/></g><g id="LINE-5" data-name="LINE"><line class="cls-1" x1="156.26" y1="14.53" x2="156.26" y2="142.09"/></g><g id="LINE-6" data-name="LINE"><line class="cls-1" x1="142.09" y1="0.35" x2="14.53" y2="0.35"/></g><g id="LINE-7" data-name="LINE"><line class="cls-1" x1="120.97" y1="25.87" x2="134.86" y2="25.87"/></g></svg>